<svg id="visual" viewBox="0 0 900 600" width="900" height="600" xmlns="http://www.w3.org/2000/svg" xmlns:xlink="http://www.w3.org/1999/xlink" version="1.1"><g transform="translate(459.7607523416573 324.3865226820757)"><path d="M147.8 -184C189.3 -141.3 219.2 -92.6 226 -41.7C232.8 9.2 216.4 62.4 188.2 106.2C159.9 150 119.8 184.5 73.6 200.6C27.4 216.8 -25 214.6 -74.8 199.2C-124.6 183.7 -171.8 155.1 -204.6 111.7C-237.3 68.2 -255.6 10 -243.1 -39.8C-230.7 -89.6 -187.7 -131 -142.1 -173C-96.4 -214.9 -48.2 -257.5 2.5 -260.4C53.1 -263.3 106.3 -226.7 147.8 -184" fill="#d8d8d8"></path></g></svg>