<svg id="visual" viewBox="0 0 960 540" width="960" height="540" xmlns="http://www.w3.org/2000/svg" xmlns:xlink="http://www.w3.org/1999/xlink" version="1.1"><rect x="0" y="0" width="960" height="540" fill="#101214"></rect><path d="M0 354L22.8 342C45.7 330 91.3 306 137 284.7C182.7 263.3 228.3 244.7 274 262C319.7 279.3 365.3 332.7 411.2 353.3C457 374 503 362 548.8 353C594.7 344 640.3 338 686 333C731.7 328 777.3 324 823 316.8C868.7 309.7 914.3 299.3 937.2 294.2L960 289L960 541L937.2 541C914.3 541 868.7 541 823 541C777.3 541 731.7 541 686 541C640.3 541 594.7 541 548.8 541C503 541 457 541 411.2 541C365.3 541 319.7 541 274 541C228.3 541 182.7 541 137 541C91.3 541 45.7 541 22.8 541L0 541Z" fill="#191A1B" stroke-linecap="round" stroke-linejoin="miter"></path></svg>